<?xml version="1.0" encoding="utf-8"?>
<!-- Generator: Adobe Illustrator 19.0.0, SVG Export Plug-In . SVG Version: 6.00 Build 0)  -->
<svg version="1.1" xmlns="http://www.w3.org/2000/svg" xmlns:xlink="http://www.w3.org/1999/xlink" x="0px" y="0px"
	 viewBox="0 0 612 792" style="enable-background:new 0 0 612 792;" xml:space="preserve">
<style type="text/css">
	.st0{display:none;}
	.st1{display:inline;fill:#FFFFFF;stroke:#000000;stroke-miterlimit:10;}
	.st2{display:inline;fill:none;stroke:#000000;stroke-width:2;stroke-miterlimit:10;}
	.st3{fill:none;stroke:#000000;stroke-width:8;stroke-miterlimit:10;}
</style>
<g id="Layer_1" class="st0">
	<rect id="XMLID_1_" x="82.3" y="195.1" class="st1" width="56.6" height="56.6"/>
	<rect id="XMLID_3_" x="138.8" y="195.1" class="st1" width="56.6" height="56.6"/>
	<rect id="XMLID_4_" x="195.4" y="195.1" class="st1" width="56.6" height="56.6"/>
	<rect id="XMLID_5_" x="252" y="195.1" class="st1" width="56.6" height="56.6"/>
	<rect id="XMLID_6_" x="308.6" y="195.1" class="st1" width="56.6" height="56.6"/>
	<rect id="XMLID_7_" x="365.2" y="195.1" class="st1" width="56.6" height="56.6"/>
	<line id="XMLID_18_" class="st1" x1="421.7" y1="251.7" x2="421.7" y2="195.1"/>
	<rect id="XMLID_15_" x="82.3" y="251.7" class="st1" width="56.6" height="56.6"/>
	<rect id="XMLID_14_" x="138.8" y="251.7" class="st1" width="56.6" height="56.6"/>
	<rect id="XMLID_13_" x="195.4" y="251.7" class="st1" width="56.6" height="56.6"/>
	<rect id="XMLID_12_" x="252" y="251.7" class="st1" width="56.6" height="56.6"/>
	<rect id="XMLID_11_" x="308.6" y="251.7" class="st1" width="56.6" height="56.6"/>
	<rect id="XMLID_10_" x="365.2" y="251.7" class="st1" width="56.6" height="56.6"/>
	<line id="XMLID_17_" class="st1" x1="421.7" y1="308.3" x2="421.7" y2="251.7"/>
	<line id="XMLID_28_" class="st1" x1="82.3" y1="308.3" x2="138.8" y2="308.3"/>
	<line id="XMLID_27_" class="st1" x1="138.8" y1="308.3" x2="195.4" y2="308.3"/>
	<line id="XMLID_26_" class="st1" x1="195.4" y1="308.3" x2="252" y2="308.3"/>
	<line id="XMLID_25_" class="st1" x1="252" y1="308.3" x2="308.6" y2="308.3"/>
	<line id="XMLID_24_" class="st1" x1="308.6" y1="308.3" x2="365.2" y2="308.3"/>
	<line id="XMLID_23_" class="st1" x1="365.2" y1="308.3" x2="421.7" y2="308.3"/>
	<path id="XMLID_16_" class="st1" d="M421.7,308.3"/>
</g>
<g id="Mean" class="st0">
	<line id="XMLID_39_" class="st2" x1="211" y1="491.2" x2="211" y2="415.7"/>
	<line id="XMLID_38_" class="st2" x1="211" y1="415.7" x2="248.7" y2="453.4"/>
	<line id="XMLID_37_" class="st2" x1="248.7" y1="453.4" x2="286.4" y2="415.7"/>
	<line id="XMLID_36_" class="st2" x1="286.4" y1="415.7" x2="286.4" y2="491.2"/>
	<line id="XMLID_35_" class="st2" x1="286.4" y1="415.7" x2="361.9" y2="415.7"/>
	<line id="XMLID_34_" class="st2" x1="286.4" y1="453.4" x2="324.2" y2="453.4"/>
	<line id="XMLID_33_" class="st2" x1="286.4" y1="491.2" x2="361.9" y2="415.7"/>
	<line id="XMLID_32_" class="st2" x1="361.9" y1="415.7" x2="437.3" y2="491.2"/>
	<line id="XMLID_31_" class="st2" x1="437.3" y1="491.2" x2="437.3" y2="415.7"/>
	<circle id="XMLID_40_" class="st2" cx="324.2" cy="453.4" r="127"/>
</g>
<g id="Layer_3">
	<polyline id="XMLID_19_" class="st3" points="355.7,183.3 242.6,183.3 186,239.8 129.4,183.3 129.4,296.4 	"/>
	<polyline id="XMLID_8_" class="st3" points="468.9,183.3 468.9,296.4 355.7,183.3 299.2,239.8 242.6,239.8 242.6,183.3 
		242.6,296.4 299.2,239.8 	"/>
</g>
</svg>
